<svg version="1.1" xmlns="http://www.w3.org/2000/svg" xmlns:xlink="http://www.w3.org/1999/xlink" width="799" height="353" viewBox="0 0 799 353"><defs/><g transform="matrix(1,0,0,1,0,0)"><g><g><g><path fill="none" stroke="#d3d3d3" paint-order="fill stroke markers" d=" M 0 0 L 1200 0" stroke-miterlimit="10" stroke-opacity="0.8" stroke-dasharray="5"/></g><g><path fill="none" stroke="#d3d3d3" paint-order="fill stroke markers" d=" M 0 0 L 0 800" stroke-miterlimit="10" stroke-opacity="0.8" stroke-dasharray="5"/></g></g><g id="_5328F717-C24A-43A5-85EA-81E002B81E42" transform="matrix(1,0,0,1,142,127)"><g><path fill="none" stroke="none"/></g><g transform="matrix(0.9345794392523364,0,0,0.8771929824561403,0,0)"><g transform="matrix(1,0,0,1,0,0)"><path fill="none" stroke="#000000" id="_5328F717-C24A-43A5-85EA-81E002B81E42?shapeType=BORDER&amp;renderType=STROKE" paint-order="fill stroke markers" d=" M 0 0 M 1.5 30 C 1.5 14.3 14.3 1.5 30 1.5 L 80 1.5 C 95.7 1.5 108.5 14.3 108.5 30 C 108.5 45.7 95.7 58.5 80 58.5 L 30 58.5 C 14.3 58.5 1.5 45.7 1.5 30 Z" stroke-miterlimit="10" stroke-width="1.5" stroke-dasharray=""/></g></g><g transform="matrix(1,0,0,1,5.6361541748046875,18.5)"><text fill="#000000" stroke="none" font-family="Open Sans" font-size="10pt" font-style="normal" font-weight="normal" text-decoration="normal" x="44.36384582519531" y="10.4" text-anchor="middle" dominant-baseline="alphabetic">LoanApplicant</text></g></g><g transform="matrix(1,0,0,1,142,127)"/><g id="_5D479BA8-D5C6-4E8E-A3FF-B5ED8DA2E149" transform="matrix(1,0,0,1,309,127)"><g><path fill="none" stroke="none"/></g><g transform="matrix(1,0,0,1,0,0)"><path fill="none" stroke="#000000" id="_5D479BA8-D5C6-4E8E-A3FF-B5ED8DA2E149?shapeType=BORDER&amp;renderType=STROKE" paint-order="fill stroke markers" d=" M 0 0 L 151 0 L 151 50 L 0 50 L 0 0 Z Z" stroke-miterlimit="10" stroke-width="1.5" stroke-dasharray=""/></g><g transform="matrix(1,0,0,1,27.07793426513672,18.5)"><text fill="#000000" stroke="none" font-family="Open Sans" font-size="10pt" font-style="normal" font-weight="normal" text-decoration="normal" x="48.42206573486328" y="10.4" text-anchor="middle" dominant-baseline="alphabetic">ApplicantStatus</text></g></g><g transform="matrix(1,0,0,1,309,127)"/><g id="_953D5D78-BC22-43E9-832F-C3792BBBC7EE" transform="matrix(1,0,0,1,334,252)"><g><path fill="none" stroke="none"/></g><g transform="matrix(0.9345794392523364,0,0,0.8771929824561403,0,0)"><g transform="matrix(1,0,0,1,0,0)"><path fill="none" stroke="#000000" id="_953D5D78-BC22-43E9-832F-C3792BBBC7EE?shapeType=BORDER&amp;renderType=STROKE" paint-order="fill stroke markers" d=" M 0 0 M 1.5 30 C 1.5 14.3 14.3 1.5 30 1.5 L 80 1.5 C 95.7 1.5 108.5 14.3 108.5 30 C 108.5 45.7 95.7 58.5 80 58.5 L 30 58.5 C 14.3 58.5 1.5 45.7 1.5 30 Z" stroke-miterlimit="10" stroke-width="1.5" stroke-dasharray=""/></g></g><g transform="matrix(1,0,0,1,4.015464782714844,12)"><text fill="#000000" stroke="none" font-family="Open Sans" font-size="10pt" font-style="normal" font-weight="normal" text-decoration="normal" x="45.984535217285156" y="10.4" text-anchor="middle" dominant-baseline="alphabetic">LoanApplicatio</text><text fill="#000000" stroke="none" font-family="Open Sans" font-size="10pt" font-style="normal" font-weight="normal" text-decoration="normal" x="45.984535217285156" y="23.400000000000002" text-anchor="middle" dominant-baseline="alphabetic">            n            </text></g></g><g transform="matrix(1,0,0,1,334,252)"/><g id="_EEE6641E-D0DD-4C4E-B064-5526ACC981B5" transform="matrix(1,0,0,1,621,182)"><g><path fill="none" stroke="none"/></g><g transform="matrix(1,0,0,1,0,0)"><path fill="none" stroke="rgb(0,136,206)" id="_EEE6641E-D0DD-4C4E-B064-5526ACC981B5?shapeType=BORDER&amp;renderType=STROKE" paint-order="fill stroke markers" d=" M 0 0 L 128 0 L 128 50 L 0 50 L 0 0 Z Z" stroke-miterlimit="10" stroke-width="1.5" stroke-dasharray=""/></g><g transform="matrix(1,0,0,1,9.866477966308594,18.5)"><text fill="#000000" stroke="none" font-family="Open Sans" font-size="10pt" font-style="normal" font-weight="normal" text-decoration="normal" x="54.133522033691406" y="10.4" text-anchor="middle" dominant-baseline="alphabetic">ApplicationStatus</text></g></g><g transform="matrix(1,0,0,1,621,182)"><g transform="matrix(1,0,0,1,128,50)"><path fill="#0088CE" stroke="#FFFFFF" paint-order="fill stroke markers" d=" M 5 0 A 5 5 0 1 0 4.999997500000209 0.0049999991666683785 Z" fill-opacity="0.8" stroke-miterlimit="10" stroke-width="2" stroke-dasharray=""/></g></g><g id="_29ACE095-CB32-4E7B-9D06-6089C07ED767#_1D9A671A-01CE-4141-A82C-9BDFCBF64DD2"><g><path fill="none" stroke="#000000" paint-order="fill stroke markers" d=" M 242 152 L 294 152" stroke-miterlimit="10" stroke-dasharray=""/></g><g transform="matrix(1,0,0,1,242,152)"/><g transform="matrix(6.123233995736766e-17,1,-1,6.123233995736766e-17,309,147)"><path fill="#000000" stroke="#000000" paint-order="fill stroke markers" d=" M 10 15 L 0 15 L 5 0 Z" stroke-miterlimit="10" stroke-dasharray=""/></g><g transform="matrix(1,0,0,1,242,142)"/></g><g id="_29ACE095-CB32-4E7B-9D06-6089C07ED767#_43CFF9D9-4E4C-41FB-89C3-AA077036DAC3"><g><path fill="none" stroke="#000000" paint-order="fill stroke markers" d=" M 460 152 L 606.8054098880083 202.1509164213693" stroke-miterlimit="10" stroke-dasharray=""/></g><g transform="matrix(1,0,0,1,460,152)"/><g transform="matrix(-0.32327223857538134,0.9463060074661165,-0.9463060074661165,-0.32327223857538134,622.6163611928769,202.26846996266943)"><path fill="#000000" stroke="#000000" paint-order="fill stroke markers" d=" M 10 15 L 0 15 L 5 0 Z" stroke-miterlimit="10" stroke-dasharray=""/></g><g transform="matrix(1,0,0,1,463.23272238575385,170.03693992533883)"/></g><g id="_29ACE095-CB32-4E7B-9D06-6089C07ED767#_4055335E-A00B-4439-88D6-6B79E05B3376"><g><path fill="none" stroke="#000000" paint-order="fill stroke markers" d=" M 434 277 L 606.951977498021 212.25861804886912" stroke-miterlimit="10" stroke-dasharray=""/></g><g transform="matrix(1,0,0,1,434,277)"/><g transform="matrix(0.3505745365912758,0.9365348334652653,-0.9365348334652653,0.3505745365912758,619.2471273170436,202.31732583267367)"><path fill="#000000" stroke="#000000" paint-order="fill stroke markers" d=" M 10 15 L 0 15 L 5 0 Z" stroke-miterlimit="10" stroke-dasharray=""/></g><g transform="matrix(1,0,0,1,437.50574536591273,232.63465166534735)"/></g></g></g></svg>